# xmcd
#
# Track frame offsets: 
#        150
#        11680
#        24623
#        35193
#        44385
#        59082
#        70629
#        79231
#        89703
#        102261
#
# Disc length: 1616 seconds
#
# Revision: 0
# Processed by: cddbd v1.5.2PL0 Copyright (c) Steve Scherf et al.
# Submitted via: ExactAudioCopy v1.0b3
#
DISCID=8a064e0a
DTITLE=Various Artist - Postcard Christmas
DYEAR=2001
DGENRE=Country
TTITLE0=Lacy J. Dalton - Here Comes Santa Claus
TTITLE1=Boxcar Willie - White Christmas
TTITLE2=Eddy Raven - Silent Night
TTITLE3=Donna Fargo - Rockin' Around the Christmas Tree
TTITLE4=Jeannie C. Riley - Silver Bells
TTITLE5=Skeeter Davis - Santa Claus is Coming to Town
TTITLE6=Kitty Wells - Santa's On His Way
TTITLE7=Gene Autry - Sleigh Bells
TTITLE8=Boxcar Willie - Blue Christmas
TTITLE9=Eddy Raven - I'll Be Home For Christmas
EXTD=
EXTT0=
EXTT1=
EXTT2=
EXTT3=
EXTT4=
EXTT5=
EXTT6=
EXTT7=
EXTT8=
EXTT9=
PLAYORDER=
